<svg width="434" height="491" viewBox="0 0 434 491" fill="none" xmlns="http://www.w3.org/2000/svg">
<path d="M434 273.379C434 393.192 336.872 490.32 217.059 490.32C97.2455 490.32 0.117676 393.192 0.117676 273.379C0.117676 153.566 97.2455 56.4377 217.059 56.4377C336.872 56.4377 434 153.566 434 273.379Z" fill="#15947D"/>
<path d="M100.492 2.20237C102.162 -0.690181 106.337 -0.690175 108.007 2.20237L149.34 73.793C151.01 76.6855 148.922 80.3012 145.582 80.3012H62.9166C59.5766 80.3012 57.489 76.6855 59.1591 73.793L100.492 2.20237Z" fill="#F89500"/>
<path d="M104.249 34.7438L126.795 73.7932H81.7042L104.249 34.7438Z" fill="#373535"/>
<path d="M321.772 2.20237C323.442 -0.690181 327.617 -0.690175 329.287 2.20237L370.62 73.793C372.29 76.6855 370.202 80.3012 366.862 80.3012H284.197C280.857 80.3012 278.769 76.6855 280.439 73.793L321.772 2.20237Z" fill="#F89500"/>
<path d="M325.529 34.7438L348.075 73.7932H302.984L325.529 34.7438Z" fill="#373535"/>
<path d="M381.934 312.428C381.934 403.486 308.117 477.304 217.059 477.304C126.001 477.304 52.1835 403.486 52.1835 312.428C52.1835 221.37 126.001 147.553 217.059 147.553C308.117 147.553 381.934 221.37 381.934 312.428Z" fill="#F89500"/>
<path d="M186.687 411.088C186.687 411.088 208.663 433.49 248.023 420.485C287.382 407.48 288.17 373.172 288.17 373.172" stroke="#373535" stroke-width="3" stroke-linecap="round"/>
<path d="M182.348 310.259C182.348 318.646 175.549 325.445 167.162 325.445C158.775 325.445 151.976 318.646 151.976 310.259C151.976 301.872 158.775 295.073 167.162 295.073C175.549 295.073 182.348 301.872 182.348 310.259Z" fill="#373535"/>
<path d="M277.802 310.259C277.802 318.646 271.003 325.445 262.616 325.445C254.23 325.445 247.431 318.646 247.431 310.259C247.431 301.872 254.23 295.073 262.616 295.073C271.003 295.073 277.802 301.872 277.802 310.259Z" fill="#373535"/>
<path d="M204.262 352.709C202.592 349.816 204.679 346.2 208.019 346.2L225.822 346.2C229.162 346.2 231.25 349.816 229.58 352.709L220.678 368.127C219.008 371.019 214.833 371.019 213.163 368.127L204.262 352.709Z" fill="#373535"/>
<path d="M213.059 164.908C213.059 222.606 166.286 269.379 108.588 269.379C50.8908 269.379 4.11768 222.606 4.11768 164.908C4.11768 107.211 50.8908 60.4377 108.588 60.4377C166.286 60.4377 213.059 107.211 213.059 164.908Z" fill="#05B4FE" stroke="#7A2FC4" stroke-width="8"/>
<path d="M71.0205 192.015L140.442 131.271M92.2796 200.833L137.913 159.356" stroke="#D9D9D9" stroke-width="9" stroke-linecap="round"/>
<path d="M430 164.908C430 222.606 383.227 269.379 325.529 269.379C267.832 269.379 221.059 222.606 221.059 164.908C221.059 107.211 267.832 60.4377 325.529 60.4377C383.227 60.4377 430 107.211 430 164.908Z" fill="#05B4FE" stroke="#7A2FC4" stroke-width="8"/>
<path d="M290.819 186.602L360.24 125.859M312.078 195.42L357.712 153.944" stroke="#D9D9D9" stroke-width="9" stroke-linecap="round"/>
</svg>
