<svg width="429" height="153" viewBox="0 0 429 153" fill="none" xmlns="http://www.w3.org/2000/svg">
<path d="M135.076 85.098C135.076 122.398 104.838 152.636 67.538 152.636C30.2378 152.636 0 122.398 0 85.098C0 47.7978 30.2378 17.5599 67.538 17.5599C104.838 17.5599 135.076 47.7978 135.076 85.098Z" fill="#15947D"/>
<path d="M31.2485 0.675441C31.7684 -0.225067 33.0681 -0.225065 33.588 0.675442L46.4558 22.963C46.9757 23.8635 46.3258 24.9891 45.286 24.9891H19.5505C18.5107 24.9891 17.8608 23.8635 18.3807 22.963L31.2485 0.675441Z" fill="#F89500"/>
<path d="M32.4182 10.8062L39.4369 22.963H25.3994L32.4182 10.8062Z" fill="#373535"/>
<path d="M100.137 0.675441C100.657 -0.225067 101.957 -0.225065 102.477 0.675442L115.344 22.963C115.864 23.8635 115.214 24.9891 114.175 24.9891H88.4392C87.3994 24.9891 86.7495 23.8635 87.2694 22.963L100.137 0.675441Z" fill="#F89500"/>
<path d="M101.307 10.8062L108.326 22.963H94.2881L101.307 10.8062Z" fill="#373535"/>
<path d="M118.867 97.2548C118.867 125.603 95.8861 148.584 67.5379 148.584C39.1897 148.584 16.209 125.603 16.209 97.2548C16.209 68.9066 39.1897 45.9259 67.5379 45.9259C95.8861 45.9259 118.867 68.9066 118.867 97.2548Z" fill="#F89500"/>
<path d="M58.0825 127.97C58.0825 127.97 64.924 134.944 77.1775 130.895C89.431 126.846 89.6761 116.166 89.6761 116.166" stroke="#373535" stroke-width="3" stroke-linecap="round"/>
<path d="M56.7317 96.5795C56.7317 99.1905 54.615 101.307 52.004 101.307C49.393 101.307 47.2764 99.1905 47.2764 96.5795C47.2764 93.9685 49.393 91.8518 52.004 91.8518C54.615 91.8518 56.7317 93.9685 56.7317 96.5795Z" fill="#373535"/>
<path d="M86.4485 96.5795C86.4485 99.1905 84.3318 101.307 81.7208 101.307C79.1098 101.307 76.9932 99.1905 76.9932 96.5795C76.9932 93.9685 79.1098 91.8518 81.7208 91.8518C84.3318 91.8518 86.4485 93.9685 86.4485 96.5795Z" fill="#373535"/>
<path d="M63.5541 109.795C63.0342 108.894 63.6841 107.769 64.7239 107.769L70.2664 107.769C71.3062 107.769 71.9561 108.894 71.4362 109.795L68.6649 114.595C68.145 115.495 66.8452 115.495 66.3253 114.595L63.5541 109.795Z" fill="#373535"/>
<path d="M63.538 51.329C63.538 67.7699 50.21 81.098 33.769 81.098C17.328 81.098 4 67.7699 4 51.329C4 34.888 17.328 21.5599 33.769 21.5599C50.21 21.5599 63.538 34.888 63.538 51.329Z" fill="#05B4FE" stroke="#7A2FC4" stroke-width="8"/>
<path d="M22.0737 59.7678L43.6859 40.8571M28.6921 62.5129L42.8988 49.6004" stroke="#D9D9D9" stroke-width="3" stroke-linecap="round"/>
<path d="M131.076 51.329C131.076 67.7699 117.748 81.098 101.307 81.098C84.8661 81.098 71.5381 67.7699 71.5381 51.329C71.5381 34.888 84.8661 21.5599 101.307 21.5599C117.748 21.5599 131.076 34.888 131.076 51.329Z" fill="#05B4FE" stroke="#7A2FC4" stroke-width="8"/>
<path d="M90.501 58.0828L112.113 39.1721M97.1194 60.8279L111.326 47.9154" stroke="#D9D9D9" stroke-width="3" stroke-linecap="round"/>
<path d="M168.44 105.008L157.693 89.9822V105.008H148.162V70.7258H157.693V85.5085L168.342 70.7258H179.332L166.738 87.3563L179.964 105.008H168.44Z" fill="#373535"/>
<path d="M192.976 70.7258V105.008H183.445V70.7258H192.976Z" fill="#373535"/>
<path d="M230.158 105.008H220.627L207.935 85.8489V105.008H198.404V70.7258H207.935L220.627 90.1281V70.7258H230.158V105.008Z" fill="#373535"/>
<path d="M249.154 70.7258C252.752 70.7258 255.897 71.4552 258.588 72.914C261.311 74.3404 263.402 76.3503 264.861 78.9438C266.319 81.5373 267.049 84.5035 267.049 87.8426C267.049 91.1493 266.303 94.0993 264.812 96.6928C263.353 99.2863 261.262 101.329 258.539 102.82C255.848 104.279 252.72 105.008 249.154 105.008H235.587V70.7258H249.154ZM248.425 96.5955C251.213 96.5955 253.401 95.8337 254.989 94.3101C256.578 92.7864 257.372 90.6306 257.372 87.8426C257.372 85.0222 256.578 82.8502 254.989 81.3265C253.401 79.7705 251.213 78.9924 248.425 78.9924H245.118V96.5955H248.425Z" fill="#373535"/>
<path d="M280.876 78.3603V83.9524H291.817V91.1979H280.876V97.3736H293.276V105.008H271.345V70.7258H293.276V78.3603H280.876Z" fill="#373535"/>
<path d="M315.346 105.008L308.538 92.365H307.517V105.008H297.986V70.7258H313.012C315.767 70.7258 318.101 71.212 320.014 72.1846C321.927 73.1247 323.369 74.4377 324.342 76.1234C325.314 77.7767 325.801 79.6408 325.801 81.7156C325.801 84.0497 325.152 86.1082 323.856 87.8912C322.591 89.6418 320.727 90.8899 318.263 91.6355L325.995 105.008H315.346ZM307.517 85.8489H312.234C313.53 85.8489 314.503 85.5409 315.151 84.925C315.8 84.309 316.124 83.4175 316.124 82.2505C316.124 81.1482 315.783 80.2892 315.103 79.6732C314.454 79.0248 313.498 78.7007 312.234 78.7007H307.517V85.8489Z" fill="#373535"/>
<path d="M159.044 146.693H146.887L145.039 152.285H135.022L147.519 118.002H158.509L170.958 152.285H160.892L159.044 146.693ZM156.661 139.398L152.965 128.311L149.318 139.398H156.661Z" fill="#05B4FE"/>
<path d="M187.631 118.002C191.23 118.002 194.374 118.732 197.065 120.191C199.788 121.617 201.879 123.627 203.338 126.22C204.797 128.814 205.526 131.78 205.526 135.119C205.526 138.426 204.78 141.376 203.289 143.969C201.83 146.563 199.739 148.605 197.016 150.097C194.325 151.555 191.197 152.285 187.631 152.285H174.064V118.002H187.631ZM186.902 143.872C189.69 143.872 191.878 143.11 193.466 141.587C195.055 140.063 195.849 137.907 195.849 135.119C195.849 132.299 195.055 130.127 193.466 128.603C191.878 127.047 189.69 126.269 186.902 126.269H183.595V143.872H186.902Z" fill="#05B4FE"/>
<path d="M243.181 118.002L231.364 152.285H219.159L207.294 118.002H217.505L225.286 142.754L233.018 118.002H243.181Z" fill="#05B4FE"/>
<path d="M255.681 125.637V131.229H266.623V138.475H255.681V144.65H268.081V152.285H246.15V118.002H268.081V125.637H255.681Z" fill="#05B4FE"/>
<path d="M304.545 152.285H295.014L282.322 133.126V152.285H272.791V118.002H282.322L295.014 137.405V118.002H304.545V152.285Z" fill="#05B4FE"/>
<path d="M335.795 118.002V125.588H326.653V152.285H317.122V125.588H308.077V118.002H335.795Z" fill="#05B4FE"/>
<path d="M348.658 118.002V137.891C348.658 139.739 349.079 141.165 349.922 142.17C350.797 143.175 352.11 143.678 353.861 143.678C355.611 143.678 356.924 143.175 357.8 142.17C358.707 141.133 359.161 139.706 359.161 137.891V118.002H368.692V137.891C368.692 141.036 368.028 143.726 366.698 145.963C365.369 148.168 363.554 149.837 361.252 150.972C358.983 152.074 356.454 152.625 353.666 152.625C350.878 152.625 348.382 152.074 346.178 150.972C344.006 149.837 342.287 148.168 341.023 145.963C339.791 143.759 339.175 141.068 339.175 137.891V118.002H348.658Z" fill="#05B4FE"/>
<path d="M391.3 152.285L384.492 139.642H383.471V152.285H373.94V118.002H388.966C391.721 118.002 394.055 118.489 395.968 119.461C397.881 120.401 399.323 121.714 400.296 123.4C401.268 125.053 401.755 126.917 401.755 128.992C401.755 131.326 401.106 133.385 399.81 135.168C398.545 136.918 396.681 138.167 394.217 138.912L401.949 152.285H391.3ZM383.471 133.126H388.188C389.484 133.126 390.457 132.818 391.105 132.202C391.754 131.586 392.078 130.694 392.078 129.527C392.078 128.425 391.737 127.566 391.057 126.95C390.408 126.302 389.452 125.977 388.188 125.977H383.471V133.126Z" fill="#05B4FE"/>
<path d="M415.62 125.637V131.229H426.561V138.475H415.62V144.65H428.02V152.285H406.089V118.002H428.02V125.637H415.62Z" fill="#05B4FE"/>
</svg>
