<svg width="270" height="163" viewBox="0 0 270 163" fill="none" xmlns="http://www.w3.org/2000/svg">
<path fill-rule="evenodd" clip-rule="evenodd" d="M23 0C10.2975 0 0 10.2975 0 23V139.78C0 152.483 10.2974 162.78 23 162.78H246.273C258.976 162.78 269.273 152.483 269.273 139.78V23C269.273 10.2975 258.976 0 246.273 0H23ZM99.9762 54.7938H110.839V45.2111H99.9762V34H89.8627V45.2111H79V54.7938H89.8627V65.9423H99.9762V54.7938ZM101.508 117.227L108.624 128H118.488L107.001 110.588L118.363 93.3019H108.999L102.631 104.012L95.5767 93.3019H85.7129L97.1375 110.588L85.8378 128H95.2022L101.508 117.227ZM177.108 112.008V120.902H149.639V112.008H177.108ZM163.199 52.3198C166.791 52.3198 169.702 49.3989 169.702 45.7957C169.702 42.1925 166.791 39.2715 163.199 39.2715C159.608 39.2715 156.696 42.1925 156.696 45.7957C156.696 49.3989 159.608 52.3198 163.199 52.3198ZM182.708 75.8068C182.708 79.41 179.797 82.3309 176.205 82.3309C172.614 82.3309 169.702 79.41 169.702 75.8068C169.702 72.2036 172.614 69.2826 176.205 69.2826C179.797 69.2826 182.708 72.2036 182.708 75.8068ZM185.448 46.4076L149.404 67.2849L153.956 75.195L190 54.3177L185.448 46.4076Z" fill="#05B4FE"/>
</svg>
