<svg width="270" height="163" viewBox="0 0 270 163" fill="none" xmlns="http://www.w3.org/2000/svg">
<path fill-rule="evenodd" clip-rule="evenodd" d="M23 0C10.2975 0 0 10.2975 0 23V139.78C0 152.483 10.2974 162.78 23 162.78H246.273C258.976 162.78 269.273 152.483 269.273 139.78V23C269.273 10.2975 258.976 0 246.273 0H23ZM161.47 39.3995C160.697 40.7728 160.311 42.3325 160.311 44.0788C160.311 45.825 160.697 47.3847 161.47 48.758C162.259 50.1313 163.326 51.2078 164.67 51.9877C166.03 52.7506 167.55 53.1321 169.23 53.1321C171.212 53.1321 172.934 52.6319 174.395 51.6317C175.873 50.6144 176.906 49.1988 177.494 47.3847H173.437C173.034 48.2324 172.463 48.8767 171.724 49.3175C171.002 49.7413 170.162 49.9532 169.205 49.9532C168.18 49.9532 167.265 49.7159 166.459 49.2412C165.669 48.7495 165.048 48.0629 164.594 47.1813C164.157 46.2827 163.939 45.2486 163.939 44.0788C163.939 42.892 164.157 41.8578 164.594 40.9762C165.048 40.0946 165.669 39.4165 166.459 38.9418C167.265 38.4501 168.18 38.2043 169.205 38.2043C170.162 38.2043 171.002 38.4162 171.724 38.84C172.463 39.2639 173.034 39.8996 173.437 40.7473H177.494C176.906 38.9502 175.873 37.5431 174.395 36.5258C172.917 35.5086 171.195 35 169.23 35C167.55 35 166.03 35.3899 164.67 36.1698C163.326 36.9327 162.259 38.0093 161.47 39.3995ZM153.487 61.529C154.676 61.7528 155.653 62.353 156.419 63.3295C157.185 64.3061 157.568 65.425 157.568 66.6864C157.568 67.8257 157.286 68.8327 156.722 69.7075C156.177 70.562 155.381 71.2334 154.333 71.7216C153.285 72.2099 152.046 72.454 150.614 72.454H141.514V51.1533H150.221C151.652 51.1533 152.882 51.3873 153.91 51.8552C154.958 52.3231 155.744 52.9741 156.268 53.8083C156.812 54.6424 157.084 55.5884 157.084 56.6463C157.084 57.8873 156.752 58.9249 156.087 59.759C155.442 60.5932 154.575 61.1832 153.487 61.529ZM145.747 59.9421H149.617C150.625 59.9421 151.401 59.7184 151.945 59.2708C152.489 58.8028 152.761 58.1417 152.761 57.2872C152.761 56.4327 152.489 55.7715 151.945 55.3036C151.401 54.8357 150.625 54.6017 149.617 54.6017H145.747V59.9421ZM150.01 68.9751C151.038 68.9751 151.834 68.731 152.398 68.2427C152.983 67.7545 153.275 67.0627 153.275 66.1676C153.275 65.2521 152.973 64.54 152.368 64.0314C151.763 63.5024 150.947 63.238 149.919 63.238H145.747V68.9751H150.01ZM126.007 105.96L127.862 100.548H139.068L140.923 105.96H146.889L136.77 77.5184H130.2L120.081 105.96H126.007ZM133.465 84.11L137.536 95.9912H129.393L133.465 84.11ZM110.25 111.522C100.393 110.708 86 119.761 86 119.761V128H183V119.761C183 119.761 168.607 110.708 158.75 111.522C148.2 112.393 134.5 125.254 134.5 125.254C134.5 125.254 120.8 112.393 110.25 111.522Z" fill="#DD4B34"/>
</svg>
