<svg width="270" height="163" viewBox="0 0 270 163" fill="none" xmlns="http://www.w3.org/2000/svg">
<path fill-rule="evenodd" clip-rule="evenodd" d="M23 0C10.2975 0 0 10.2975 0 23V139.78C0 152.483 10.2974 162.78 23 162.78H246.273C258.976 162.78 269.273 152.483 269.273 139.78V23C269.273 10.2975 258.976 0 246.273 0H23ZM120.088 45.4506C122.937 45.4506 125.248 43.1112 125.248 40.2253C125.248 37.3395 122.937 35 120.088 35C117.238 35 114.927 37.3395 114.927 40.2253C114.927 43.1112 117.238 45.4506 120.088 45.4506ZM148.324 50.7013C148.324 55.3706 144.586 59.1558 139.975 59.1558C135.364 59.1558 131.626 55.3706 131.626 50.7013C131.626 46.032 135.364 42.2468 139.975 42.2468C144.586 42.2468 148.324 46.032 148.324 50.7013ZM124.55 87.1464C124.759 86.7792 124.87 86.3626 124.87 85.9386V71.2338C124.87 69.8997 125.938 68.8182 127.255 68.8182H141.966C143.283 68.8182 144.351 69.8997 144.351 71.2338V84.5719C144.351 84.9959 144.461 85.4124 144.671 85.7797L166.677 124.377C167.595 125.987 166.447 128 164.611 128H105.389C103.553 128 102.405 125.987 103.323 124.377L124.55 87.1464Z" fill="#15947D"/>
</svg>
