<svg width="270" height="163" viewBox="0 0 270 163" fill="none" xmlns="http://www.w3.org/2000/svg">
<path fill-rule="evenodd" clip-rule="evenodd" d="M23 0C10.2975 0 0 10.2975 0 23V139.78C0 152.483 10.2974 162.78 23 162.78H246.273C258.976 162.78 269.273 152.483 269.273 139.78V23C269.273 10.2975 258.976 0 246.273 0H23ZM100.07 76.303C105.754 74.1509 109.8 68.6179 109.8 62.1316C109.8 53.7746 103.084 47 94.8001 47C86.5159 47 79.8001 53.7746 79.8001 62.1316C79.8001 68.6817 83.9258 74.2597 89.6987 76.3655C81.2259 78.7092 75 86.5334 75 95.8246V116H115H155H195V95.8246C195 86.449 188.66 78.5671 180.07 76.303C185.754 74.1509 189.8 68.6179 189.8 62.1316C189.8 53.7746 183.084 47 174.8 47C166.516 47 159.8 53.7746 159.8 62.1316C159.8 68.6817 163.926 74.2597 169.699 76.3655C161.226 78.7092 155 86.5334 155 95.8246C155 86.449 148.66 78.5671 140.07 76.303C145.754 74.1509 149.8 68.6179 149.8 62.1316C149.8 53.7746 143.084 47 134.8 47C126.516 47 119.8 53.7746 119.8 62.1316C119.8 68.6817 123.926 74.2597 129.699 76.3655C121.226 78.7092 115 86.5334 115 95.8246C115 86.449 108.66 78.5671 100.07 76.303Z" fill="#F89500"/>
</svg>
